<?xml version="1.0" encoding="UTF-8"?>
<svg id="Layer_1" data-name="Layer 1" xmlns="http://www.w3.org/2000/svg" viewBox="0 0 5513.77 422.2">
  <defs>
    <style>
      .cls-1 {
        fill: #fff;
      }
    </style>
  </defs>
  <path class="cls-1" d="M45.72,63.97l20.12-10.16L73.66.08h35.56l-18.17,42.79,17.78-7.23L114.3.08h35.89l-15.96,26.77c21.69-6.84,55.88-8.69,74.83,8.79,26.47,24.42,31.11,56.55,3.95,118.85-25.44,58.36,24.66,82.04,162.13,82.04h3.21c135.04-.37,184.16-24.14,158.92-82.04-27.16-62.3-22.52-94.43,3.95-118.85,18.95-17.48,53.14-15.63,74.83-8.79L600.08.08h35.89l5.47,35.56,17.78,7.23L641.06.08h35.56l7.81,53.73,20.13,10.16L681.5.08h39.08l29.7,156.7-51.58,24.42c-9.77-70.92-57.25-93.98-81.87-71.12-24.21,22.48,19.15,98.08,43.37,146.52,25.31,50.6,16.42,113.6-11.13,138.09-27.55,24.48-87.92,27.42-178.15,27.42h-191.56c-90.23,0-150.6-2.94-178.15-27.42-27.55-24.48-36.44-87.48-11.13-138.09,24.22-48.44,67.58-124.04,43.37-146.52-24.62-22.86-72.1.2-81.87,71.12L0,156.78,29.7.08h39.08l-23.06,63.89Z"/>
  <g>
    <path class="cls-1" d="M1054.42,73.95l-26.15,34.25-31.21-23.77-4.41,21.42-43.3-8.89,6.88,27.35-50.66,12.72,19.16,22.95-40.12,33.41,27.26,12.39-21.64,47.48,30.22-.66,1.14,52.16,26.69-13.56,20.59,40.42,13.47-17.64,97,73.86-26.15,34.26-62.48-47.57,12.87,25.27-38.44,19.53-42.89-84.22.86,39.31-43.12.94-2.08-95.06-16.58,36.39-39.25-17.84,39.2-86.01-30.24,25.18-27.62-33.08,72.63-60.47-38.12,9.57-10.51-41.77,88.32-22.17-42.57-8.74,8.68-42.19,76.3,15.66-26.87-20.46L957.41.08l97.01,73.86Z"/>
    <path class="cls-1" d="M1161.27,387.86l-26.15,34.26-97.01-73.86,26.15-34.26,97.01,73.86Z"/>
    <path class="cls-1" d="M1246.05,387.86l-26.15,34.26-97.01-73.86,26.15-34.26,97.01,73.86Z"/>
    <path class="cls-1" d="M1332.75,387.86l-26.15,34.26-97.01-73.86,26.15-34.26,97.01,73.86Z"/>
    <path class="cls-1" d="M1368.52,54.18l-16.2-31.81,38.44-19.53,44.5,87.38-.93-42.47,43.12-.94,2.06,94.4,16.26-35.69,39.26,17.84-39.16,85.94,30.21-25.15,27.62,33.08-72.69,60.53,38.21-9.59,10.51,41.78-91.66,23.01,38.42,7.88-8.68,42.19-76.53-15.71,26.96,20.53-26.15,34.26-97.01-73.86,26.15-34.26,31.34,23.86,4.43-21.54,51.19,10.5-7.29-28.95,50.66-12.72-19.19-22.98,40.09-33.38-27.23-12.38,21.65-47.51-29.9.65-1.16-52.93-28.21,14.33-22.67-44.52-16.61,21.76-97.01-73.86L1297.48.08l71.04,54.09Z"/>
    <path class="cls-1" d="M1141.09,73.95l-26.15,34.25-97.01-73.86L1044.08.08l97.01,73.86Z"/>
    <path class="cls-1" d="M1227.79,73.95l-26.15,34.25-97.01-73.86L1130.78.08l97.01,73.86Z"/>
    <path class="cls-1" d="M1312.57,73.95l-26.15,34.25-97.01-73.86L1215.56.08l97.01,73.86Z"/>
  </g>
  <path class="cls-1" d="M2230.46,0c64.67,0,95.59,60.01,80.94,94.02l45.72,3.91-83.87,121.74-37.16-35.15c53.53-83.07,39.13-116.5,6.09-116.5s-24.15,84.57,0,166.73c34.52,128.88-58.28,186.99-257.85,187.45h-2.36c-201.19,0-294.86-58.05-260.2-187.45,24.16-82.16,33.04-166.73,0-166.73s-47.44,33.42,6.09,116.5l-37.16,35.15-83.87-121.74,45.72-3.91c-14.65-34.01,16.27-94.02,80.94-94.02,53.14,0,86.35,50.09,86.35,134.93,0,62.29,26.19,82.08,162.13,82.08h3.17c133.18-.31,158.96-20.27,158.96-82.08,0-84.83,33.2-134.93,86.35-134.93Z"/>
  <g>
    <path class="cls-1" d="M3025.3,407.89l12.48-14.87v-76.45l-12.48-14.87h40.36l-12.49,14.87v82.03h31.21l11-13.27,7.84,6.5-18.84,22.56-7.72-6.5h-51.36Z"/>
    <path class="cls-1" d="M2980.49,407.89l11.28-11.28-8.49-19.24h-41.68l-10.09,22.56h13.27l-6.63,7.96h-23.76l10.22-12.34,33.45-74.46-8.76-16.59,14.07-13.94,5.71,16.06,41.15,93.31h10.62l-6.63,7.96h-33.71ZM2945.18,369.4h34.64l-17.12-39.02-17.52,39.02Z"/>
    <path class="cls-1" d="M2869.2,414.4l-7.3-3.32,3.98-8.36-41.54-82.29-12.08-18.71h36.1l-10.49,11.28,36.37,72.07,32.78-68.49-14.2-14.87h32.78l-11.68,18.71-44.73,93.97Z"/>
    <path class="cls-1" d="M2766.97,407.89l12.48-14.87v-76.45l-12.48-14.87h40.35l-12.48,14.87v76.45l12.48,14.87h-40.35Z"/>
    <path class="cls-1" d="M2691.77,407.89l12.48-14.87v-83.35h-27.61l-3.45,20.17-10.09-1.73,5.84-33.18,9.95,1.86-.8,4.91h67.82l-.8-4.91,9.82-1.86,5.84,33.18-10.09,1.73-3.45-20.17h-27.61v83.35l12.48,14.87h-40.35Z"/>
    <path class="cls-1" d="M2636.02,347.23c12.74,4.78,20.44,13.8,20.44,28.93,0,18.32-15.4,32.92-34.78,32.92-22.03,0-36.64-11.15-36.64-32.39,0-1.33,0-2.65.13-4.12l.13-1.59h4.91c4.11,15.13,19.51,27.61,35.17,27.61,11.81,0,20.44-7.56,20.44-17.79,0-5.71-2.92-11.15-8.49-14.34-7.7-4.38-17.25-6.63-26.94-10.22-12.88-4.78-22.83-13.41-22.83-28.14,0-15.66,13.54-28.27,30.53-28.27,5.84,0,11.41,1.46,15.93,3.98l9.03-3.85,10.09,24.16-8.76,4.25c-2.92-5.71-7.17-11.15-13.8-15-5.44-3.19-11.15-4.65-16.19-4.65-9.16,0-15.93,5.04-15.93,13.01,0,5.71,3.72,11.55,9.96,15.26,8.23,4.65,17.79,6.64,27.61,10.22Z"/>
    <path class="cls-1" d="M2556.52,414.4l-7.7-6.5h-55.35l12.48-14.87v-76.45l-12.48-14.87h76.72v22.96l-14.87-15h-33.98v37.16h34.24l11.94-11.28v30.53l-11.94-11.28h-34.24v45.13h34.11l12.08-14.6,7.83,6.5-18.85,22.56Z"/>
    <path class="cls-1" d="M2410.26,407.89l12.48-14.87v-76.45l-12.48-14.87h75.39v30.39l-17.79-22.43h-29.73v38.49h26.28l11.95-11.28v30.53l-11.95-11.28h-26.28v36.9l12.48,14.87h-40.35Z"/>
    <path class="cls-1" d="M3095.84,215.41l-7.96,12.48h-19.91l-11.15,1.33,11.15-15.93,4.1,2.12h23.77Z"/>
    <path class="cls-1" d="M2975.85,261.87l12.48-14.87v-76.45l-12.48-14.87h40.35l-12.48,14.87v82.03h31.19l11.01-13.27,7.84,6.5-18.86,22.56-7.7-6.5h-51.37Z"/>
    <path class="cls-1" d="M2866.98,263.46l11.15-14.33c-9.69-9.69-15.66-23.63-15.66-38.89,0-13.01,4.51-26.55,12.48-36.63,9.82-12.34,24.42-19.78,40.22-19.78,11.28,0,21.37,3.58,29.73,9.82l11.02-14.07,5.84,4.38-11.28,14.47c9.69,9.69,15.8,23.63,15.8,38.89,0,30.79-23.36,56.41-52.83,56.41-11.28,0-21.37-3.58-29.73-9.82l-11.02,14.07-5.71-4.51ZM2954.98,216.34c0-12.74-6.11-25.48-15-34.51l-46.06,58.93c7.83,6.11,17.92,9.95,27.61,9.95,19.38,0,33.45-14.87,33.45-34.38ZM2873.62,201.21c0,12.61,5.84,25.35,15,34.64l45.93-58.93c-7.96-6.24-17.79-10.09-27.48-10.09-7.96,0-15.53,2.39-21.64,7.57-7.83,6.64-11.81,16.33-11.81,26.81Z"/>
    <path class="cls-1" d="M2835.69,261.87l-71.41-83.62v75.66h13.28l-6.64,7.96h-27.08l12.48-14.87v-76.45l-12.48-14.87h30.4l-4.38,5.18,65.83,76.59v-66.9l-12.48-14.87h20.44v106.18h-7.96Z"/>
    <path class="cls-1" d="M2734.16,248.06c3.05,0,5.18,2.26,5.18,5.44,0,6.5-7.43,9.42-15.13,9.42-17.12,0-25.09-10.88-33.85-25.35l-1.19-1.99c-4.78-8.1-8.63-16.86-28.41-28.94v40.35l12.48,14.87h-40.35l12.48-14.87v-76.45l-12.48-14.87,48.71-.13c15.13,0,23.89,3.32,29.86,8.89,4.78,4.78,7.43,11.15,7.43,16.99,0,9.03-5.44,17.39-13.93,23.1-5.97,3.98-13.41,6.24-20.04,6.9,10.75,1.86,15.27,9.29,21.24,19.91l1.59,2.79c5.71,9.82,8.89,20.04,21.37,20.97-.26-.8-.4-1.46-.4-1.99,0-2.79,2.39-5.04,5.44-5.04ZM2677.21,162.19c-6.37,0-12.21,2.26-16.46,6.11v32.12c4.91,4.78,11.95,7.03,18.18,7.03,12.74,0,23.63-9.16,23.63-22.03s-11.68-23.23-25.35-23.23Z"/>
    <path class="cls-1" d="M2569.83,263.73c-28.93,0-50.97-24.16-50.97-53.49,0-13.01,4.51-26.55,12.48-36.63,9.82-12.34,24.42-19.78,40.22-19.78,29.07,0,51.1,24.29,51.1,53.49,0,30.79-23.36,56.41-52.83,56.41ZM2577.93,250.72c19.38,0,33.45-14.87,33.45-34.38,0-16.19-9.56-31.99-22.43-41.01-7.97-5.57-16.99-8.49-25.48-8.49-7.97,0-15.53,2.39-21.64,7.57-7.83,6.64-11.81,16.33-11.81,26.81,0,16.33,9.69,32.78,23.76,41.94,7.56,4.91,16.06,7.57,24.16,7.57Z"/>
    <path class="cls-1" d="M2416.16,261.87l12.48-14.87v-76.45l-12.48-14.87h40.35l-12.48,14.87v38.09l41.41-39.42v-13.54h31.06l-15.8,10.22-35.57,33.58,41.55,54.42h13.27l-6.64,7.96h-38.89l8.63-13.54-29.2-38.23-9.82,9.29v27.61l12.48,14.87h-40.35Z"/>
    <path class="cls-1" d="M2917.98,115.84l12.48-14.87V24.53l-12.48-14.87h40.35l-12.48,14.87v38.09l41.41-39.42v-13.54h31.06l-15.8,10.22-35.57,33.58,41.54,54.42h13.28l-6.64,7.96h-38.89l8.63-13.54-29.2-38.23-9.82,9.29v27.61l12.48,14.87h-40.35Z"/>
    <path class="cls-1" d="M2887.99,55.19c12.74,4.78,20.44,13.8,20.44,28.94,0,18.32-15.4,32.92-34.78,32.92-22.03,0-36.63-11.15-36.63-32.39,0-1.33,0-2.65.13-4.11l.13-1.59h4.91c4.12,15.13,19.51,27.61,35.17,27.61,11.81,0,20.44-7.57,20.44-17.79,0-5.71-2.92-11.15-8.49-14.34-7.7-4.38-17.25-6.64-26.94-10.22-12.87-4.78-22.83-13.41-22.83-28.14,0-15.66,13.54-28.27,30.53-28.27,5.84,0,11.42,1.46,15.93,3.98l9.03-3.85,10.09,24.16-8.76,4.25c-2.92-5.71-7.17-11.15-13.8-15-5.44-3.19-11.15-4.65-16.19-4.65-9.16,0-15.93,5.04-15.93,13.01,0,5.71,3.72,11.55,9.96,15.26,8.23,4.65,17.79,6.64,27.61,10.22Z"/>
    <path class="cls-1" d="M2826.64,102.04c3.05,0,5.18,2.26,5.18,5.44,0,6.5-7.43,9.42-15.13,9.42-17.12,0-25.09-10.88-33.85-25.35l-1.19-1.99c-4.78-8.1-8.63-16.86-28.41-28.94v40.35l12.48,14.87h-40.35l12.48-14.87V24.53l-12.48-14.87,48.71-.13c15.13,0,23.89,3.32,29.86,8.89,4.78,4.78,7.43,11.15,7.43,16.99,0,9.03-5.44,17.39-13.93,23.09-5.98,3.98-13.41,6.24-20.04,6.9,10.75,1.86,15.26,9.29,21.24,19.91l1.59,2.79c5.71,9.82,8.89,20.04,21.37,20.97-.27-.8-.4-1.46-.4-1.99,0-2.79,2.39-5.04,5.44-5.04ZM2769.7,16.16c-6.37,0-12.21,2.26-16.46,6.11v32.12c4.91,4.78,11.94,7.03,18.18,7.03,12.74,0,23.62-9.16,23.62-22.03s-11.68-23.23-25.35-23.23Z"/>
    <path class="cls-1" d="M2662.32,117.7c-28.94,0-50.97-24.16-50.97-53.49,0-13.01,4.51-26.55,12.48-36.63,9.82-12.34,24.42-19.78,40.22-19.78,29.07,0,51.1,24.29,51.1,53.49,0,30.79-23.36,56.41-52.83,56.41ZM2670.41,104.69c19.38,0,33.45-14.87,33.45-34.38,0-16.19-9.56-31.99-22.43-41.01-7.96-5.57-16.99-8.49-25.48-8.49-7.96,0-15.53,2.39-21.63,7.57-7.83,6.64-11.81,16.33-11.81,26.81,0,16.33,9.69,32.78,23.76,41.94,7.57,4.91,16.06,7.57,24.16,7.57Z"/>
    <path class="cls-1" d="M2583.9,115.84l-71.41-83.62v75.66h13.27l-6.64,7.96h-27.08l12.48-14.87V24.53l-12.48-14.87h30.4l-4.38,5.18,65.83,76.59V24.53l-12.48-14.87h20.44v106.18h-7.96Z"/>
  </g>
  <path class="cls-1" d="M3906.63,60.59l-39.02,69.11c-26.23,0-49.87,4.38-63.95,54.03-17.02,60.08-18.54,103.63-63.46,167.72-44.92,64.09-124,70.74-208.71,70.74s-163.76-6.65-208.68-70.74c-44.92-64.1-46.47-107.65-63.49-167.72-14.07-49.65-37.69-54.03-63.92-54.03l-39.05-69.11,60.57-60.59,77.2,60.59c-.52,26.77,4.35,58.37,37.29,99.65,31.85,39.87,158.47,43.43,200.08,43.43s168.22-3.56,200.08-43.43c32.98-41.28,37.81-72.88,37.32-99.65L3846.05,0l60.57,60.59Z"/>
  <g>
    <path class="cls-1" d="M4620.43,242.79c49.75,0,89.63,30.98,89.63,81.17s-40.06,98.11-97.32,98.11c-64.58,0-91.36-48.54-103.21-80.99,2.25,8.49,2.25,14.26,2.25,21.5,0,29.38-23.92,59.49-56.44,59.49-45.62,0-65.89-34.97-65.89-54.51s8.97-33.5,27.02-33.5c13.71,0,24.86,11.13,24.86,24.87s-11.15,24.87-24.86,24.87c-7.87,0-14.89-3.66-19.45-9.36,6.72,41.92,70.24,34.23,70.24-11.86,0-15.53-5.71-43.68-50.79-43.68s-64.16,47.67-64.16,103.17h-34.77c0-55.5-21.31-103.17-64.16-103.17-45.07,0-50.79,28.15-50.79,43.68,0,46.09,63.52,53.78,70.24,11.86-4.56,5.71-11.58,9.36-19.45,9.36-13.74,0-24.86-11.14-24.86-24.87s11.12-24.87,24.86-24.87c18.05,0,27.02,13.96,27.02,33.5s-20.27,54.51-65.89,54.51c-32.55,0-56.47-30.12-56.47-59.49,0-7.24,0-13.01,2.28-21.5-11.85,32.45-38.63,80.99-103.24,80.99-57.23,0-97.29-47.92-97.29-98.11s39.84-81.17,89.63-81.17c69.02,0,75.16,77.62,49.51,95.36-34.8,24.05-67.44,3.74-67.44-17.29,0-1.45.06-2.81.21-4.06.58-13.24,11.49-23.8,24.86-23.8s24.86,11.14,24.86,24.87c0,12.76-9.6,23.27-21.97,24.7,6.66,1.1,13.95,0,20.52-4.43,25.59-17.29,12.67-61.67-25.96-61.67-14.71,0-38.14,13.31-38.14,44.37s22.7,44.7,46.35,44.7c109.75,0,40-122.77,184.79-122.77,51.73,0,77.59,28.11,87.93,79.27,10.33-51.15,36.17-79.27,87.93-79.27,144.76,0,75.01,122.77,184.79,122.77,23.65,0,46.35-13.64,46.35-44.7s-23.46-44.37-38.14-44.37c-38.66,0-51.55,44.37-25.96,61.67,6.56,4.42,13.86,5.53,20.52,4.43-12.37-1.43-21.97-11.94-21.97-24.7,0-13.73,11.12-24.87,24.86-24.87s24.28,10.56,24.83,23.8c.18,1.26.24,2.61.24,4.06,0,21.03-32.67,41.34-67.44,17.29-25.65-17.74-19.51-95.36,49.51-95.36Z"/>
    <path class="cls-1" d="M4352.31.13c0,55.5,21.31,103.17,64.16,103.17,45.07,0,50.79-28.15,50.79-43.68,0-46.09-63.52-53.78-70.24-11.86,4.56-5.71,11.58-9.36,19.45-9.36,13.71,0,24.86,11.13,24.86,24.87s-11.15,24.87-24.86,24.87c-18.05,0-27.02-13.96-27.02-33.5S4409.72.13,4455.34.13c32.52,0,56.44,30.12,56.44,59.49,0,7.24,0,13.01-2.25,21.5,11.85-32.45,38.63-80.99,103.21-80.99,57.26,0,97.32,47.92,97.32,98.11s-39.88,81.17-89.63,81.17c-69.02,0-75.16-77.62-49.51-95.36,34.77-24.05,67.44-3.74,67.44,17.29,0,1.45-.06,2.8-.24,4.06-.55,13.24-11.46,23.8-24.83,23.8s-24.86-11.13-24.86-24.87c0-12.76,9.6-23.27,21.97-24.7-6.66-1.1-13.95,0-20.52,4.43-25.59,17.29-12.7,61.66,25.96,61.66,14.68,0,38.14-13.31,38.14-44.37s-22.7-44.7-46.35-44.7c-109.78,0-40.03,122.77-184.79,122.77-51.76,0-77.59-28.11-87.93-79.27-10.33,51.15-36.2,79.27-87.93,79.27-144.79,0-75.04-122.77-184.79-122.77-23.65,0-46.35,13.64-46.35,44.7s23.43,44.37,38.14,44.37c38.63,0,51.55-44.37,25.96-61.66-6.56-4.42-13.86-5.52-20.52-4.43,12.37,1.43,21.97,11.94,21.97,24.7,0,13.74-11.12,24.87-24.86,24.87s-24.28-10.56-24.86-23.8c-.15-1.26-.21-2.61-.21-4.06,0-21.03,32.64-41.34,67.44-17.29,25.65,17.74,19.51,95.36-49.51,95.36-49.78,0-89.63-30.98-89.63-81.17S3999.84.13,4057.07.13c64.62,0,91.39,48.54,103.24,80.99-2.28-8.49-2.28-14.26-2.28-21.5,0-29.38,23.92-59.49,56.47-59.49,45.62,0,65.89,34.97,65.89,54.51s-8.97,33.5-27.02,33.5c-13.74,0-24.86-11.13-24.86-24.87s11.12-24.87,24.86-24.87c7.87,0,14.89,3.66,19.45,9.36-6.72-41.92-70.24-34.23-70.24,11.86,0,15.53,5.71,43.68,50.79,43.68s64.16-47.67,64.16-103.17h34.77Z"/>
  </g>
  <path class="cls-1" d="M5455.53,0l-25.56,70.44c-2.95,8.12-.15,16.93,7.26,21.31,26.14,15.41,76.53,45.47,76.53,112.51,0,80.53-116.28,138-204,151.41l2.1,19.62s-22.49,9.19-49.45,15.05l2.16,16.03c-16.05,5.12-54.56,15.83-126.1,15.83s-110.02-10.71-126.07-15.83l2.16-16.03c-26.96-5.86-49.45-15.05-49.45-15.05l2.1-19.62c-87.71-13.42-204.03-70.88-204.03-151.41,0-67.04,50.42-97.1,76.53-112.51,7.45-4.38,10.24-13.2,7.29-21.31l-25.56-70.44h634.08Z"/>
</svg>